<svg xmlns="http://www.w3.org/2000/svg" xmlns:xlink="http://www.w3.org/1999/xlink" viewBox="0 0 113.39 125.32"><defs><style>.cls-1{fill:#cacbce;}.cls-2{fill:#364959;}.cls-3{fill:url(#未命名漸層_2);}.cls-4{fill:url(#未命名漸層_3);}.cls-5{fill:url(#未命名漸層_4);}.cls-6{fill:url(#未命名漸層_5);}.cls-7{fill:url(#未命名漸層_6);}.cls-8{fill:url(#未命名漸層_7);}.cls-9{fill:url(#未命名漸層_8);}.cls-10{fill:url(#未命名漸層_9);}.cls-11{fill:url(#未命名漸層_10);}.cls-12{fill:url(#未命名漸層_11);}.cls-13{fill:url(#未命名漸層_12);}.cls-14{fill:url(#未命名漸層_13);}</style><linearGradient id="未命名漸層_2" x1="274.51" y1="2997.19" x2="276.83" y2="2997.19" gradientTransform="matrix(25.12, 0, 0, -25.12, -6809.25, 75387.32)" gradientUnits="userSpaceOnUse"><stop offset="0" stop-color="#364959"/><stop offset="0.38" stop-color="#364959"/><stop offset="0.77" stop-color="#cacbce"/><stop offset="1" stop-color="#cacbce"/></linearGradient><linearGradient id="未命名漸層_3" x1="275.27" y1="3011.11" x2="277.53" y2="3011.11" gradientTransform="matrix(11.62, -14.69, -14.69, -11.62, 41120.77, 39165.94)" gradientUnits="userSpaceOnUse"><stop offset="0" stop-color="#364959"/><stop offset="0.29" stop-color="#364959"/><stop offset="0.9" stop-color="#cacbce"/><stop offset="1" stop-color="#cacbce"/></linearGradient><linearGradient id="未命名漸層_4" x1="276.18" y1="3000.82" x2="278.49" y2="3000.82" gradientTransform="matrix(29.43, 0, 0, -29.43, -8038.91, 88320.35)" gradientUnits="userSpaceOnUse"><stop offset="0" stop-color="#364959"/><stop offset="0.31" stop-color="#364959"/><stop offset="0.73" stop-color="#cacbce"/><stop offset="1" stop-color="#cacbce"/></linearGradient><linearGradient id="未命名漸層_5" x1="282.9" y1="3005.54" x2="285.14" y2="3005.54" gradientTransform="matrix(22.42, -51.57, -51.57, -22.42, 148688.71, 82103.17)" gradientUnits="userSpaceOnUse"><stop offset="0" stop-color="#364959"/><stop offset="0.36" stop-color="#364959"/><stop offset="0.79" stop-color="#cacbce"/><stop offset="1" stop-color="#cacbce"/></linearGradient><linearGradient id="未命名漸層_6" x1="282.56" y1="3003.79" x2="284.83" y2="3003.79" gradientTransform="matrix(46.75, -56.32, -56.32, -46.75, 155975.56, 156464.26)" gradientUnits="userSpaceOnUse"><stop offset="0" stop-color="#cacbce"/><stop offset="0.18" stop-color="#cacbce"/><stop offset="0.48" stop-color="#364959"/><stop offset="0.8" stop-color="#364959"/><stop offset="1" stop-color="#cacbce"/></linearGradient><radialGradient id="未命名漸層_7" cx="236.73" cy="2995.44" r="2.32" gradientTransform="translate(-1173.41 -15514.18) scale(5.41 5.18)" gradientUnits="userSpaceOnUse"><stop offset="0" stop-color="#fff" stop-opacity="0.85"/><stop offset="0.68" stop-color="#fff" stop-opacity="0.5"/><stop offset="1" stop-color="#fff" stop-opacity="0"/></radialGradient><radialGradient id="未命名漸層_8" cx="239.62" cy="2996.76" r="2.32" gradientTransform="matrix(6.73, 0, 0, -6.45, -1583.41, 19426.34)" gradientUnits="userSpaceOnUse"><stop offset="0" stop-color="#fff" stop-opacity="0.85"/><stop offset="0.42" stop-color="#fff" stop-opacity="0.5"/><stop offset="1" stop-color="#fff" stop-opacity="0"/></radialGradient><radialGradient id="未命名漸層_9" cx="253.58" cy="3003.64" r="2.32" gradientTransform="translate(-2395.69 -27452.03) scale(9.58 9.18)" gradientUnits="userSpaceOnUse"><stop offset="0" stop-color="#162632"/><stop offset="0.5" stop-color="#162632" stop-opacity="0.5"/><stop offset="1" stop-color="#162632" stop-opacity="0"/></radialGradient><linearGradient id="未命名漸層_10" x1="282.83" y1="3019.16" x2="285.05" y2="3019.16" gradientTransform="matrix(0, -11.55, -11.55, 0, 34983, 3389.09)" gradientUnits="userSpaceOnUse"><stop offset="0" stop-color="#162632"/><stop offset="0.2" stop-color="#162632"/><stop offset="0.39" stop-color="#162632" stop-opacity="0.5"/><stop offset="0.56" stop-color="#162632"/><stop offset="0.71" stop-color="#162632" stop-opacity="0.5"/><stop offset="0.8" stop-color="#162632" stop-opacity="0"/><stop offset="0.96" stop-color="#cacbce"/><stop offset="1" stop-color="#cacbce"/></linearGradient><linearGradient id="未命名漸層_11" x1="275.34" y1="3011.11" x2="277.6" y2="3011.11" gradientTransform="matrix(11.62, -14.69, -14.69, -11.62, 41121.4, 39165.14)" gradientUnits="userSpaceOnUse"><stop offset="0" stop-color="#364959"/><stop offset="0.19" stop-color="#364959"/><stop offset="0.57" stop-color="#cacbce"/><stop offset="1" stop-color="#cacbce"/></linearGradient><linearGradient id="未命名漸層_12" x1="282.45" y1="2980.84" x2="284.67" y2="2980.84" gradientTransform="matrix(0, 10.6, 10.6, 0, -31488.34, -2989.18)" gradientUnits="userSpaceOnUse"><stop offset="0" stop-color="#162632" stop-opacity="0.5"/><stop offset="0.16" stop-color="#162632"/><stop offset="0.47" stop-color="#162632"/><stop offset="0.62" stop-color="#162632" stop-opacity="0.5"/><stop offset="0.8" stop-color="#162632" stop-opacity="0"/><stop offset="1" stop-color="#cacbce"/></linearGradient><radialGradient id="未命名漸層_13" cx="244.33" cy="3005.96" r="2.32" gradientTransform="matrix(6.43, 0, 0, -6.15, -1462.69, 18505.32)" gradientUnits="userSpaceOnUse"><stop offset="0" stop-color="#162632"/><stop offset="0.54" stop-color="#162632" stop-opacity="0.5"/><stop offset="1" stop-color="#162632" stop-opacity="0"/></radialGradient></defs><g id="圖層_2" data-name="圖層 2"><g id="圖層_3" data-name="圖層 3"><path class="cls-1" d="M75.29,125.24c-12.38,0-22.83-1.43-32-4.37A65.46,65.46,0,0,1,20.25,108C6.87,96.5.08,80.6.08,60.74A61.35,61.35,0,0,1,3.86,40.27a59.68,59.68,0,0,1,14.9-23.11C30.76,5.67,47.39.08,69.61.08A150.45,150.45,0,0,1,93.8,2c3.38.62,15.34,2.56,18.38,2.56a1.16,1.16,0,0,1,.94.35.92.92,0,0,1,.15.83l-.08.33c-.53,2.35-1.43,6.28-1.43,20,0,3.18-.67,3.27-.75,3.27-.31,0-.46-1.07-.58-2.8v-.09a31.94,31.94,0,0,0-1.67-7.92c-1.51-3.95-6.32-7.21-13.91-9.4-7-2-16.18-3.12-26.4-3.12C58.48,6,50,7.27,43.08,9.8A38,38,0,0,0,30,17.69a42.78,42.78,0,0,0-12.1,19c-2,6.3-3,13.54-3,22.81a57.42,57.42,0,0,0,4.4,22,58.38,58.38,0,0,0,12.36,18.7c11.27,11.5,26.75,17.83,43.59,17.83,12.85,0,26-.73,33.11-9.46,1.54-1.87,2.36-4.91,3.09-7.59.15-.54.29-1.06.43-1.55l.07-.22c.41-1.46.6-2.12.86-2.12,0,0,0,0,.05,0a4.58,4.58,0,0,1,0,2.28c0,.08,0,.22-.06.41-1.44,10.06-2.67,15.14-3.44,17.64s-1.16,2.84-3.3,3.78c-6.52,2.5-18,4-30.84,4"/><path class="cls-2" d="M92.48,120.84V116.9l-.33.06v3.93l.33,0"/><path class="cls-3" d="M108.34,120a7.05,7.05,0,0,0,1.17-2.52c1.83-5.91,3.33-16.94,3.5-18.06.17-1.28.17-2.4-.17-2.4l-.09,0c-1.35,12.2-5.59,17.3-8.22,20.2a40,40,0,0,1,3.81,2.76"/><path class="cls-4" d="M104.53,117.25c2.63-2.9,6.87-8,8.22-20.2-.3.11-.62.78-1.07,2.38-.84,2.87-1.5,6.87-3.34,9.11-3.9,4.77-9.61,7.14-16,8.31V121c6.3-1,9.94-2.43,12.22-3.7"/><path class="cls-5" d="M113.22,4.91A61.37,61.37,0,0,1,107,9.46h0c3.64,6.9,4.12,10.83,4.15,19.92.32-.15.71-.92.71-3.32,0-14.39,1-18.07,1.51-20.3a1,1,0,0,0-.13-.85"/><path class="cls-6" d="M75.29,118C39.56,118,15,90,15,59.47c0-16.31,2.84-30.54,15-41.73C35.89,12.31,46.24,6.08,68.44,6.08c19.87,0,37.06,4.79,40.23,13.1a28.29,28.29,0,0,1,1.67,7.36c.17,2.23.33,2.87.67,2.87a.27.27,0,0,0,.12,0c0-9.09-.51-13-4.15-19.92-8.67-4-20-6.6-38-6.6C26,2.86,8,27.82,8,60.11c0,39.48,31.55,62,67,62A114.39,114.39,0,0,0,92.31,121v-4.1a96.3,96.3,0,0,1-17,1.12"/><path class="cls-7" d="M92.31,121A114.44,114.44,0,0,1,75,122.07c-35.47,0-67-22.48-67-62C8,27.81,26,2.86,69,2.86a140.3,140.3,0,0,1,15.85.81A71,71,0,0,1,107,9.46h0a61.37,61.37,0,0,0,6.24-4.55,1.19,1.19,0,0,0-1-.43c-3,0-14.86-1.92-18.37-2.56-2.91-.51-6-.9-9-1.2C79.31.2,73.91,0,69.61,0,43.9,0,28.71,7.51,18.7,17.1,3.84,31.33,0,50,0,60.74c0,15.19,4,33.41,20.2,47.32,13.19,11.35,30.05,17.26,55.09,17.26a143.9,143.9,0,0,0,17-1,61.41,61.41,0,0,0,13.86-3,6,6,0,0,0,2.17-1.32,40,40,0,0,0-3.81-2.76c-2.28,1.27-5.92,2.72-12.22,3.7"/><path class="cls-8" d="M107,9.46A69,69,0,0,0,86.8,3.92V7.59c11.32,2,19.74,6,21.87,11.59a28.29,28.29,0,0,1,1.67,7.36c.17,2.23.33,2.87.67,2.87l.12,0c0-9.1-.51-13-4.15-19.93"/><path class="cls-9" d="M8.8,70.63H.61C2.22,83.38,7.4,97.07,20.2,108.06s29.41,17,53.68,17.26v-3.26c-31.72-.44-60-18.9-65.08-51.43"/><path class="cls-10" d="M75.29,118c-35,0-59.29-26.88-60.24-56.7H8c.62,38.76,31.89,60.8,67,60.8,1.19,0,2.33,0,3.43,0V118c-1.06,0-2.12,0-3.17,0"/><path class="cls-11" d="M108.34,120a7.05,7.05,0,0,0,1.17-2.52c1.83-5.91,3.33-16.94,3.5-18.06.17-1.28.17-2.4-.17-2.4l-.09,0c-1.35,12.2-5.59,17.3-8.22,20.2a40,40,0,0,1,3.81,2.76"/><path class="cls-12" d="M104.53,117.25c2.63-2.9,6.87-8,8.22-20.2-.3.11-.62.78-1.07,2.38-.84,2.87-1.5,6.87-3.34,9.11-3.9,4.77-9.61,7.14-16,8.31V121c6.3-1,9.94-2.43,12.22-3.7"/><path class="cls-13" d="M113.22,4.91A61.37,61.37,0,0,1,107,9.46h0c3.64,6.9,4.12,10.83,4.15,19.92.32-.15.71-.92.71-3.32,0-14.39,1-18.07,1.51-20.3a1,1,0,0,0-.13-.85"/><path class="cls-14" d="M84.8,3.67A71,71,0,0,1,107,9.46h0a61.37,61.37,0,0,0,6.24-4.55,1.19,1.19,0,0,0-1-.43c-3,0-14.86-1.92-18.37-2.56-2.91-.51-6-.9-9-1.19l-.33,0V3.63l.33,0"/></g></g></svg>